<?xml version="1.0" encoding="UTF-8" standalone="no"?>
<!DOCTYPE svg PUBLIC "-//W3C//DTD SVG 1.1//EN" "http://www.w3.org/Graphics/SVG/1.1/DTD/svg11.dtd">
<svg width="100%" height="100%" viewBox="0 0 675 534" version="1.1" xmlns="http://www.w3.org/2000/svg" xmlns:xlink="http://www.w3.org/1999/xlink" xml:space="preserve" xmlns:serif="http://www.serif.com/" style="fill-rule:evenodd;clip-rule:evenodd;stroke-linejoin:round;stroke-miterlimit:2;">
    <g id="Artboard1" transform="matrix(0.661117,0,0,0.871126,-114.373,-135.024)">
        <rect x="173" y="155" width="1021" height="613" style="fill:none;"/>
        <g transform="matrix(1,0,0,1,0.0644843,0.428669)">
            <g transform="matrix(1.51259,0,0,1.14794,173,155)">
                <path d="M190.002,165.981C232.764,127.862 274.866,80.335 315.745,21.116C328.83,2.417 353.006,-4.906 374.268,3.388C395.53,11.682 408.361,33.442 405.327,56.061C397.673,114.312 382.696,173.722 355.814,234.919C404.631,186.916 454.589,129.799 506,61.855C520.836,42.231 547.762,36.353 569.426,48.01C591.089,59.666 601.02,85.375 592.818,108.567C573.48,162.993 546.036,221.102 510.264,282.612L506.902,288.32C536.367,260.742 565.728,229.772 594.394,193.943C604.44,180.189 622.525,174.984 638.345,181.293C654.166,187.602 663.706,203.824 661.53,220.716C653.536,262.563 639.723,302.98 617.655,341.626C611.451,352.49 604.7,363.223 597.347,373.817C617.082,361.512 636.442,346.333 655.609,328.787C659.878,324.314 666.976,324.149 671.449,328.419C675.922,332.689 676.087,339.786 671.817,344.259C647.653,373.25 622.35,397.629 595.565,416.147C574.274,430.867 551.937,441.216 528.527,447.468C519.028,449.332 509.399,444.917 504.613,436.503C500.515,429.3 500.75,420.546 504.965,413.657C449.771,462.184 391.475,498.024 333.023,528.091C312.694,538.289 288.01,533.023 273.612,515.417C259.214,497.81 258.953,472.573 272.983,454.672C285.182,438.99 296.956,423.493 308.294,408.181C258.643,445.467 209.992,474.893 162.16,498.292C140.153,509.042 113.6,502.328 99.347,482.409C85.095,462.491 87.309,435.192 104.586,417.831C160.6,361.576 202.303,307.563 233.096,255.186C208.7,274.338 184.06,290.877 159.013,304.63C124.713,323.463 89.994,337.393 55.071,347.617C36.513,353.946 16.055,346.468 5.953,329.663C-4.15,312.859 -1.157,291.283 13.137,277.862C48.551,248.373 78.052,219.501 101.614,190.449C104.65,186.706 107.593,182.975 110.431,179.245L104.688,182.458C77.614,197.265 51.874,207.274 26.927,211.915C20.943,213.472 14.82,209.877 13.264,203.892C11.707,197.907 15.302,191.785 21.286,190.228C42.842,182.966 64.385,170.765 86.55,154.216C113.402,134.168 140.232,107.485 167.928,74.604C175.821,66.471 188.182,64.626 198.106,70.102C208.029,75.577 213.061,87.017 210.389,98.032C206.529,120.322 199.705,142.914 190.002,165.981Z" style="fill:rgb(220,239,254);"/>
            </g>
            <g transform="matrix(1.81743,0,0,1.91681,-798.729,-396.643)">
                <g transform="matrix(1.51769,0,0,1.09063,92.2827,95.2431)">
                    <path d="M547.425,387.41C525.832,384.162 504.544,382.782 482.653,383.216C459.788,383.67 436.305,386.305 411.051,390.607C401.19,392.287 391.039,394.105 380.579,396.318C376.546,397.191 372.563,394.62 371.692,390.582C370.82,386.543 373.387,382.555 377.421,381.682C388.105,379.318 398.447,377.189 408.553,375.549C434.64,371.317 458.995,369.554 482.585,369.784C517.952,370.129 551.635,375.307 587.239,385.229C589.617,385.848 591.175,388.128 590.89,390.572C590.605,393.016 588.564,394.875 586.107,394.929C547.253,395.014 512.868,397.151 482.015,401.865C457.397,405.627 435.052,411.009 414.506,418.334C413.77,418.614 412.946,418.243 412.667,417.506C412.388,416.77 412.759,415.945 413.494,415.666C433.956,407.409 456.311,401.024 481.038,396.221C501.477,392.251 523.519,389.375 547.425,387.41Z" style="fill:rgb(30,136,229);"/>
                </g>
                <g transform="matrix(1.70749,0,0,1.24276,-17.9647,16.3208)">
                    <g transform="matrix(130.919,-22.1742,22.4284,129.435,367.566,377.29)">
                        <path d="M0.075,-0.062C0.074,-0.086 0.073,-0.111 0.073,-0.137C0.072,-0.163 0.072,-0.191 0.071,-0.221C0.07,-0.251 0.07,-0.283 0.07,-0.319L0.07,-0.436C0.07,-0.483 0.07,-0.524 0.071,-0.558C0.072,-0.591 0.074,-0.619 0.077,-0.64C0.08,-0.661 0.086,-0.677 0.093,-0.687C0.1,-0.697 0.109,-0.702 0.121,-0.702C0.127,-0.702 0.133,-0.701 0.138,-0.7C0.143,-0.699 0.148,-0.696 0.152,-0.692C0.156,-0.687 0.16,-0.681 0.163,-0.673C0.166,-0.664 0.167,-0.653 0.168,-0.64C0.169,-0.616 0.17,-0.595 0.171,-0.576C0.172,-0.557 0.172,-0.539 0.173,-0.521C0.174,-0.502 0.174,-0.483 0.174,-0.464L0.174,-0.311C0.174,-0.284 0.174,-0.257 0.173,-0.23C0.172,-0.203 0.172,-0.176 0.171,-0.149C0.17,-0.122 0.169,-0.093 0.168,-0.063C0.167,-0.047 0.166,-0.035 0.163,-0.026C0.16,-0.017 0.157,-0.011 0.153,-0.006C0.149,-0.001 0.144,0.001 0.139,0.002C0.134,0.003 0.128,0.004 0.121,0.004C0.109,0.004 0.099,-0 0.09,-0.009C0.081,-0.017 0.076,-0.035 0.075,-0.062Z" style="fill:rgb(30,136,229);fill-rule:nonzero;"/>
                    </g>
                    <g transform="matrix(132.358,-11.0178,11.1441,130.858,395.642,371.575)">
                        <path d="M0.296,-0.426C0.271,-0.426 0.249,-0.422 0.23,-0.414C0.21,-0.406 0.188,-0.394 0.163,-0.378L0.163,-0.317C0.163,-0.29 0.163,-0.26 0.162,-0.229C0.161,-0.197 0.161,-0.166 0.16,-0.135C0.159,-0.104 0.158,-0.079 0.156,-0.058C0.155,-0.045 0.153,-0.034 0.152,-0.027C0.15,-0.019 0.148,-0.013 0.145,-0.009C0.141,-0.005 0.138,-0.003 0.133,-0.002C0.128,-0.001 0.121,-0 0.113,-0C0.105,-0 0.099,-0.001 0.094,-0.002C0.089,-0.003 0.084,-0.005 0.081,-0.009C0.078,-0.012 0.075,-0.018 0.073,-0.025C0.071,-0.032 0.069,-0.042 0.068,-0.055C0.067,-0.067 0.066,-0.083 0.065,-0.103C0.064,-0.123 0.063,-0.145 0.062,-0.169C0.061,-0.192 0.061,-0.216 0.061,-0.241C0.06,-0.265 0.06,-0.287 0.06,-0.308C0.06,-0.342 0.061,-0.37 0.062,-0.391C0.063,-0.412 0.064,-0.431 0.067,-0.448C0.071,-0.476 0.076,-0.494 0.083,-0.501C0.09,-0.508 0.099,-0.512 0.11,-0.512C0.127,-0.512 0.139,-0.507 0.148,-0.498C0.156,-0.489 0.161,-0.473 0.163,-0.452C0.188,-0.473 0.214,-0.49 0.243,-0.503C0.271,-0.516 0.3,-0.522 0.33,-0.522C0.359,-0.522 0.385,-0.515 0.408,-0.502C0.432,-0.489 0.452,-0.467 0.467,-0.437C0.476,-0.419 0.483,-0.399 0.488,-0.378C0.493,-0.356 0.496,-0.333 0.498,-0.309C0.499,-0.298 0.499,-0.288 0.5,-0.278C0.501,-0.267 0.501,-0.256 0.501,-0.245C0.502,-0.233 0.502,-0.22 0.502,-0.205L0.502,-0.153C0.502,-0.132 0.502,-0.112 0.501,-0.093C0.5,-0.074 0.499,-0.058 0.496,-0.045C0.493,-0.031 0.487,-0.02 0.48,-0.013C0.473,-0.005 0.463,-0.001 0.45,-0.001C0.419,-0.001 0.403,-0.016 0.402,-0.045L0.402,-0.07C0.402,-0.086 0.402,-0.103 0.402,-0.123C0.401,-0.143 0.401,-0.163 0.401,-0.184C0.4,-0.205 0.4,-0.222 0.399,-0.235C0.398,-0.246 0.398,-0.257 0.397,-0.27C0.396,-0.282 0.394,-0.294 0.393,-0.307C0.391,-0.32 0.389,-0.332 0.386,-0.344C0.383,-0.355 0.38,-0.366 0.376,-0.375C0.367,-0.397 0.355,-0.411 0.341,-0.417C0.327,-0.423 0.312,-0.426 0.296,-0.426Z" style="fill:rgb(30,136,229);fill-rule:nonzero;"/>
                    </g>
                    <g transform="matrix(132.818,1.44757,-1.46417,131.313,465.366,365.642)">
                        <path d="M0.065,-0.053C0.064,-0.068 0.063,-0.09 0.062,-0.119C0.061,-0.149 0.061,-0.184 0.06,-0.223C0.059,-0.262 0.059,-0.304 0.059,-0.35L0.059,-0.491C0.059,-0.548 0.059,-0.594 0.06,-0.63C0.061,-0.666 0.063,-0.694 0.066,-0.715C0.069,-0.736 0.075,-0.75 0.082,-0.757C0.089,-0.765 0.1,-0.769 0.114,-0.769C0.126,-0.769 0.135,-0.765 0.14,-0.757C0.145,-0.75 0.149,-0.733 0.152,-0.707C0.153,-0.691 0.155,-0.67 0.156,-0.643C0.157,-0.616 0.157,-0.586 0.158,-0.554C0.158,-0.522 0.158,-0.489 0.159,-0.454C0.159,-0.419 0.159,-0.386 0.159,-0.355L0.159,-0.274L0.381,-0.475C0.388,-0.482 0.397,-0.488 0.407,-0.495C0.418,-0.501 0.429,-0.504 0.44,-0.504C0.453,-0.504 0.463,-0.499 0.47,-0.489C0.477,-0.478 0.48,-0.466 0.48,-0.453C0.48,-0.446 0.479,-0.439 0.476,-0.433C0.474,-0.426 0.469,-0.42 0.462,-0.415L0.327,-0.304L0.491,-0.066C0.497,-0.058 0.5,-0.049 0.5,-0.039C0.5,-0.024 0.495,-0.013 0.486,-0.006C0.477,0.001 0.465,0.005 0.45,0.005C0.439,0.005 0.43,0.003 0.422,-0.001C0.414,-0.005 0.406,-0.013 0.399,-0.024L0.249,-0.241L0.158,-0.166C0.157,-0.141 0.157,-0.119 0.156,-0.1C0.155,-0.081 0.154,-0.065 0.153,-0.054C0.15,-0.031 0.146,-0.015 0.14,-0.008C0.134,-0.001 0.123,0.003 0.108,0.003C0.093,0.003 0.082,-0.001 0.077,-0.008C0.071,-0.015 0.067,-0.03 0.065,-0.053Z" style="fill:rgb(30,136,229);fill-rule:nonzero;"/>
                    </g>
                    <g transform="matrix(132.491,9.31913,-9.42597,130.99,531.551,366.761)">
                        <path d="M0.067,-0.058C0.066,-0.082 0.066,-0.11 0.065,-0.142C0.064,-0.174 0.064,-0.209 0.064,-0.246C0.063,-0.283 0.063,-0.323 0.063,-0.364C0.062,-0.405 0.062,-0.448 0.062,-0.491C0.062,-0.538 0.062,-0.579 0.063,-0.613C0.064,-0.647 0.066,-0.675 0.069,-0.697C0.071,-0.719 0.076,-0.735 0.083,-0.746C0.09,-0.756 0.099,-0.761 0.111,-0.761C0.122,-0.761 0.132,-0.757 0.141,-0.75C0.15,-0.743 0.155,-0.726 0.156,-0.699C0.159,-0.651 0.16,-0.601 0.161,-0.55C0.162,-0.498 0.162,-0.447 0.162,-0.397L0.162,-0.311C0.162,-0.283 0.162,-0.256 0.161,-0.229C0.16,-0.202 0.16,-0.174 0.159,-0.146C0.158,-0.118 0.157,-0.089 0.156,-0.059C0.155,-0.043 0.154,-0.031 0.152,-0.022C0.149,-0.013 0.146,-0.007 0.142,-0.002C0.138,0.003 0.134,0.005 0.129,0.006C0.124,0.007 0.118,0.008 0.111,0.008C0.099,0.008 0.089,0.004 0.081,-0.005C0.073,-0.013 0.068,-0.031 0.067,-0.058Z" style="fill:rgb(30,136,229);fill-rule:nonzero;"/>
                    </g>
                    <g transform="matrix(132.013,14.5136,-14.6799,130.516,557.25,368.476)">
                        <path d="M0.068,-0.062C0.067,-0.087 0.066,-0.115 0.065,-0.147C0.064,-0.178 0.063,-0.213 0.063,-0.251C0.063,-0.298 0.063,-0.339 0.064,-0.373C0.065,-0.406 0.067,-0.434 0.07,-0.456C0.073,-0.477 0.077,-0.493 0.084,-0.503C0.091,-0.514 0.1,-0.519 0.112,-0.519C0.123,-0.519 0.133,-0.515 0.142,-0.507C0.151,-0.499 0.156,-0.482 0.157,-0.455C0.161,-0.385 0.163,-0.317 0.163,-0.252C0.163,-0.219 0.162,-0.188 0.161,-0.159C0.16,-0.13 0.158,-0.098 0.157,-0.063C0.156,-0.047 0.155,-0.035 0.153,-0.026C0.15,-0.017 0.147,-0.011 0.143,-0.006C0.139,-0.001 0.135,0.001 0.13,0.002C0.125,0.003 0.119,0.004 0.112,0.004C0.1,0.004 0.09,-0 0.082,-0.009C0.074,-0.017 0.069,-0.035 0.068,-0.062ZM0.113,-0.7C0.128,-0.7 0.142,-0.694 0.156,-0.682C0.169,-0.67 0.175,-0.656 0.175,-0.639C0.175,-0.623 0.168,-0.609 0.155,-0.598C0.142,-0.586 0.127,-0.58 0.11,-0.58C0.096,-0.58 0.083,-0.586 0.07,-0.598C0.058,-0.609 0.052,-0.624 0.052,-0.641C0.052,-0.657 0.058,-0.671 0.07,-0.683C0.083,-0.694 0.097,-0.7 0.113,-0.7Z" style="fill:rgb(30,136,229);fill-rule:nonzero;"/>
                    </g>
                    <g transform="matrix(131.204,20.4593,-20.6938,129.717,582.994,371.193)">
                        <path d="M0.068,-0.062C0.067,-0.087 0.066,-0.115 0.065,-0.147C0.064,-0.178 0.063,-0.213 0.063,-0.251C0.063,-0.298 0.063,-0.339 0.064,-0.373C0.065,-0.406 0.067,-0.434 0.07,-0.456C0.073,-0.477 0.077,-0.493 0.084,-0.503C0.091,-0.514 0.1,-0.519 0.112,-0.519C0.123,-0.519 0.133,-0.515 0.142,-0.507C0.151,-0.499 0.156,-0.482 0.157,-0.455C0.161,-0.385 0.163,-0.317 0.163,-0.252C0.163,-0.219 0.162,-0.188 0.161,-0.159C0.16,-0.13 0.158,-0.098 0.157,-0.063C0.156,-0.047 0.155,-0.035 0.153,-0.026C0.15,-0.017 0.147,-0.011 0.143,-0.006C0.139,-0.001 0.135,0.001 0.13,0.002C0.125,0.003 0.119,0.004 0.112,0.004C0.1,0.004 0.09,-0 0.082,-0.009C0.074,-0.017 0.069,-0.035 0.068,-0.062ZM0.113,-0.7C0.128,-0.7 0.142,-0.694 0.156,-0.682C0.169,-0.67 0.175,-0.656 0.175,-0.639C0.175,-0.623 0.168,-0.609 0.155,-0.598C0.142,-0.586 0.127,-0.58 0.11,-0.58C0.096,-0.58 0.083,-0.586 0.07,-0.598C0.058,-0.609 0.052,-0.624 0.052,-0.641C0.052,-0.657 0.058,-0.671 0.07,-0.683C0.083,-0.694 0.097,-0.7 0.113,-0.7Z" style="fill:rgb(30,136,229);fill-rule:nonzero;"/>
                    </g>
                </g>
            </g>
        </g>
    </g>
</svg>